<?xml version="1.0" standalone="no"?>
<!DOCTYPE svg PUBLIC "-//W3C//DTD SVG 1.1//EN" "http://www.w3.org/Graphics/SVG/1.1/DTD/svg11.dtd"><svg t="1704246822708"
  class="icon" viewBox="0 0 1024 1024" version="1.1" xmlns="http://www.w3.org/2000/svg" p-id="6234"
  id="mx_n_1704246822710" width="200" height="200" xmlns:xlink="http://www.w3.org/1999/xlink" fill="#1296db">
  <path
    d="M859.733 160l-36.266-12.8c-4.267-23.467-25.6-42.667-51.2-42.667-29.867 0-53.334 23.467-53.334 53.334S742.4 211.2 772.267 211.2c14.933 0 25.6-6.4 36.266-14.933l29.867 12.8c23.467 8.533 38.4 38.4 38.4 66.133v473.6c0 27.733-14.933 57.6-38.4 66.133L810.667 825.6c-10.667-10.667-23.467-17.067-38.4-17.067-29.867 0-53.334 23.467-53.334 53.334S742.4 915.2 772.267 915.2c23.466 0 42.666-14.933 51.2-36.267l38.4-12.8C906.667 851.2 940.8 800 940.8 750.933V275.2c-2.133-49.067-36.267-100.267-81.067-115.2zM292.267 808.533c-17.067 0-32 8.534-42.667 21.334l-38.4-12.8c-21.333-10.667-40.533-38.4-40.533-61.867V270.933c0-23.466 19.2-51.2 40.533-59.733l42.667-14.933c10.666 10.666 23.466 17.066 38.4 17.066 29.866 0 53.333-23.466 53.333-53.333s-23.467-53.333-53.333-53.333c-23.467 0-44.8 14.933-51.2 36.266L187.733 160c-42.666 14.933-81.066 64-81.066 110.933v486.4c0 46.934 38.4 93.867 83.2 110.934l51.2 17.066c8.533 19.2 27.733 32 49.066 32 29.867 0 53.334-23.466 53.334-53.333 2.133-32-21.334-55.467-51.2-55.467zM418.133 420.267a42.667 42.667 0 1 0 85.334 0 42.667 42.667 0 1 0-85.334 0z"
    p-id="6235"></path>
  <path d="M669.867 443.733l81.066 78.934 2.134 110.933-396.8-2.133v-66.134L448 499.2l89.6 59.733z" p-id="6236"></path>
  <path
    d="M627.2 748.8H337.067c-49.067 0-89.6-40.533-89.6-89.6V424.533c0-23.466 19.2-42.666 42.666-42.666h8.534v275.2c0 21.333 17.066 36.266 36.266 36.266h332.8V704c2.134 25.6-17.066 44.8-40.533 44.8z"
    p-id="6237"></path>
  <path
    d="M746.667 676.267H352c-21.333 0-36.267-17.067-36.267-36.267V330.667c0-25.6 21.334-46.934 46.934-46.934h384c25.6 0 46.933 21.334 46.933 46.934v298.666c2.133 25.6-21.333 46.934-46.933 46.934z m-377.6-53.334H742.4V345.6c0-6.4-4.267-10.667-10.667-10.667h-352c-6.4 0-10.666 4.267-10.666 10.667v277.333z"
    p-id="6238"></path>
</svg>
