<svg height="24" viewBox="0 0 24 24" width="24" xmlns="http://www.w3.org/2000/svg" fill="#4342ab">
    <path d="m17.5531248 16.4450044c.0755749-.2655994.3521513-.4196447.6177507-.3440698s.4196447.3521513.3440698.6177507c-.2430178.8540586-.9218414 1.5234269-1.7990053 1.7427179l-8.12748553 2.0317889c-1.3738838.3174693-2.72156962-.5130804-3.03362012-1.8652992l-2.10041332-9.10179108c-.30648259-1.32809126.50733863-2.65692994 1.82963893-2.98750501l1.88902565-.47225642c.26789745-.06697436.5393647.09590599.60633906.36380344.06697437.26789746-.09590598.5393647-.36380344.60633906l-1.88902564.47225642c-.79338019.19834504-1.28167292.99564825-1.09778336 1.79250301l2.10041332 9.10179108c.18721504.8112651.99575366 1.3095501 1.82539023 1.1179245l8.11878862-2.0296972c.5266571-.1316643.9336816-.5330193 1.0797204-1.0462563zm2.4468752-3.1521112v-7.7928932c0-.82842712-.6715729-1.5-1.5-1.5h-9c-.82842712 0-1.5.67157288-1.5 1.5v5.7928932l2.1464466-2.14644659c.1952622-.19526215.5118446-.19526215.7071068 0l3.7101555 3.71015559 2.658941-1.7726273c.1983113-.1322076.4623713-.1060605.6309035.0624717zm-.0125075 1.401706-2.5512014-2.5512014-2.658941 1.7726273c-.1983113.1322076-.4623713.1060605-.6309035-.0624717l-3.6464466-3.6464466-2.5 2.5v1.7928932c0 .8284271.67157288 1.5 1.5 1.5h9c.7624802 0 1.3920849-.5689075 1.4874925-1.3054008zm-10.4874925-11.6945992h9c1.3807119 0 2.5 1.11928813 2.5 2.5v9c0 1.3807119-1.1192881 2.5-2.5 2.5h-9c-1.38071187 0-2.5-1.1192881-2.5-2.5v-9c0-1.38071187 1.11928813-2.5 2.5-2.5zm6.5 2h2c.5522847 0 1 .44771525 1 1v2c0 .55228475-.4477153 1-1 1h-2c-.5522847 0-1-.44771525-1-1v-2c0-.55228475.4477153-1 1-1zm0 1v2h2v-2z"/>
</svg>